<?xml version="1.0" encoding="iso-8859-1"?>
<!-- Generator: Adobe Illustrator 16.0.0, SVG Export Plug-In . SVG Version: 6.00 Build 0)  -->
<!DOCTYPE svg PUBLIC "-//W3C//DTD SVG 1.1//EN" "http://www.w3.org/Graphics/SVG/1.1/DTD/svg11.dtd">
<svg version="1.1" id="Capa_1" xmlns="http://www.w3.org/2000/svg" xmlns:xlink="http://www.w3.org/1999/xlink" x="0px" y="0px"
	 width="561.601px" height="561.601px" viewBox="0 0 561.601 561.601" style="enable-background:new 0 0 561.601 561.601;"
	 xml:space="preserve">
<g>
	<g>
		<path d="M561.395,548.188l-7.879-45.441c-1.377-8.339-7.497-10.251-13.464-4.284l-41.004,41.004
			c-5.968,5.967-4.132,12.164,4.283,13.464l45.441,7.88C557.111,562.264,562.771,556.604,561.395,548.188z"/>
		<path d="M141.487,196.823c-5.814-5.813-15.223-5.813-20.808,0l-42.381,42.381c-5.814,5.814-5.814,15.224,0,20.809l238.985,238.986
			c17.442,17.441,45.747,17.441,63.189,0c17.441-17.442,17.441-45.747,0-63.189L141.487,196.823z"/>
		<path d="M499.889,318.841L259.68,78.631c-5.814-5.813-15.224-5.813-20.808,0l-40.851,40.851c-5.814,5.814-5.814,15.224,0,20.809
			L438.23,380.5l0,0c17.059,17.06,44.752,17.06,61.812,0C517.102,363.364,516.948,335.9,499.889,318.841z"/>
		<path d="M209.113,28.6L185.551,5.038c-5.967-5.967-15.682-5.967-21.726,0L4.476,164.388c-5.967,5.967-5.967,15.683,0,21.726
			l23.562,23.562c5.967,5.967,15.682,5.967,21.726,0L209.113,50.249C215.08,44.282,215.08,34.567,209.113,28.6z"/>
	</g>
</g>
<g>
</g>
<g>
</g>
<g>
</g>
<g>
</g>
<g>
</g>
<g>
</g>
<g>
</g>
<g>
</g>
<g>
</g>
<g>
</g>
<g>
</g>
<g>
</g>
<g>
</g>
<g>
</g>
<g>
</g>
</svg>
